<?xml version="1.0" standalone="no"?><!DOCTYPE svg PUBLIC "-//W3C//DTD SVG 1.1//EN" "http://www.w3.org/Graphics/SVG/1.1/DTD/svg11.dtd"><svg t="1584678846033" class="icon" viewBox="0 0 1024 1024" version="1.1" xmlns="http://www.w3.org/2000/svg" p-id="6655" xmlns:xlink="http://www.w3.org/1999/xlink" width="200" height="200"><defs><style type="text/css"></style></defs><path d="M512 549.91899c-88.613235 0-158.003174-70.955633-158.003174-159.569875 0-88.646462 69.389939-159.569875 158.003174-159.569875 88.614242 0 158.004181 70.923412 158.004181 159.569875C670.004181 478.96235 600.614242 549.91899 512 549.91899L512 549.91899zM512 311.754306c-41.87501 0-74.970051 33.846172-74.970051 78.593802 0 44.71541 33.095042 78.561582 74.970051 78.561582s74.972065-33.847179 74.972065-78.561582C586.971058 345.600478 553.87501 311.754306 512 311.754306L512 311.754306zM848.993693 553.770294c-26.20901 76.112857-67.594677 156.273359-120.012696 238.033789-32.312698 50.427423-66.908994 98.406121-101.473069 142.499281-12.14193 15.438446-23.401836 29.277971-33.552164 41.385667-6.168129 7.344161-10.60745 12.501385-12.108703 14.165753-37.305802 45.497753-102.094312 45.171525-138.68221 1.141799-2.513165-2.806166-6.951479-7.963391-13.120615-15.307552-10.151334-12.108703-21.41124-25.947222-33.553171-41.385667-34.564075-44.094167-69.161378-92.072865-101.473069-142.499281-52.418019-81.76043-93.803687-161.920933-120.011689-238.033789-20.007654-58.129026-30.712771-112.799429-30.712771-163.421179 0-207.712694 162.605609-373.908826 367.706464-373.908826S879.706464 182.636421 879.706464 390.349115C879.706464 440.970865 869.001347 495.641269 848.993693 553.770294L848.993693 553.770294zM512 97.449588c-158.362629 0-284.673341 129.085665-284.673341 292.899527 0 41.027219 9.040749 87.242876 26.404344 137.637072 23.858959 69.323485 62.43846 144.066989 111.656623 220.865529 30.843665 48.076365 63.939713 94.031241 97.034755 136.201265 11.553914 14.719536 22.292258 27.906604 31.888803 39.329624 5.678787 6.788365 9.693205 11.424027 12.500379 14.655095 4.24298 5.09077 6.201356 5.09077 11.162239-0.947471 2.023823-2.283597 6.038242-6.919259 11.717028-13.707624 9.595538-11.42302 20.333882-24.610089 31.888803-39.329624 33.095042-42.170025 66.190083-88.1249 97.034755-136.201265 49.219171-76.79854 87.797665-151.541037 111.656623-220.865529 17.363595-50.394196 26.404344-96.61086 26.404344-137.637072C796.674348 226.535253 670.362629 97.449588 512 97.449588L512 97.449588z" p-id="6656"></path></svg>