<?xml version="1.0" standalone="no"?><!DOCTYPE svg PUBLIC "-//W3C//DTD SVG 1.1//EN" "http://www.w3.org/Graphics/SVG/1.1/DTD/svg11.dtd"><svg t="1584549449642" class="icon" viewBox="0 0 1024 1024" version="1.1" xmlns="http://www.w3.org/2000/svg" p-id="5429" xmlns:xlink="http://www.w3.org/1999/xlink" width="200" height="200"><defs><style type="text/css"></style></defs><path d="M416 499.2c19.2-19.2 35.2-44.8 35.2-76.8 0-57.6-44.8-102.4-102.4-102.4-57.6 0-102.4 44.8-102.4 102.4 0 28.8 12.8 57.6 35.2 76.8-76.8 22.4-121.6 99.2-121.6 153.6 0 28.8 22.4 51.2 51.2 51.2h272c28.8 0 51.2-22.4 51.2-51.2-3.2-54.4-48-131.2-118.4-153.6zM345.6 384c22.4 0 38.4 16 38.4 38.4s-16 38.4-38.4 38.4-38.4-16-38.4-38.4 16-38.4 38.4-38.4z m-118.4 256c6.4-35.2 44.8-83.2 96-83.2h48c54.4 0 89.6 48 96 83.2H227.2z" p-id="5430"></path><path d="M896 128H128C73.6 128 32 169.6 32 224v576c0 54.4 41.6 96 96 96h768c54.4 0 96-41.6 96-96V224c0-54.4-41.6-96-96-96z m32 672c0 19.2-12.8 32-32 32H128c-19.2 0-32-12.8-32-32V224c0-19.2 12.8-32 32-32h768c19.2 0 32 12.8 32 32v576z" p-id="5431"></path><path d="M608 448h96c19.2 0 32-12.8 32-32s-12.8-32-32-32h-96c-19.2 0-32 12.8-32 32s12.8 32 32 32zM832 544h-224c-19.2 0-32 12.8-32 32s12.8 32 32 32h224c19.2 0 32-12.8 32-32s-12.8-32-32-32z" p-id="5432"></path></svg>