<?xml version="1.0" standalone="no"?><!DOCTYPE svg PUBLIC "-//W3C//DTD SVG 1.1//EN" "http://www.w3.org/Graphics/SVG/1.1/DTD/svg11.dtd"><svg t="1584678800863" class="icon" viewBox="0 0 1117 1024" version="1.1" xmlns="http://www.w3.org/2000/svg" p-id="5018" xmlns:xlink="http://www.w3.org/1999/xlink" width="218.1640625" height="200"><defs><style type="text/css"></style></defs><path d="M965.69448928 933.8366481H142.04145413a44.75708213 44.75708213 0 0 1-45.02554788-44.33520711c0-20.13493442 13.96022112-36.47299465 32.63776941-41.88066341a55.99429294 55.99429294 0 0 1-30.29828137-22.05254662 53.96162338 53.96162338 0 0 1-4.64062336-51.85224921l82.1888833-191.18599228a33.05964441 33.05964441 0 0 1 8.16903013-11.88919968l448.72138724-442.04809433A133.77266675 133.77266675 0 0 1 728.17897223 90.12538315c35.51418814 0 68.99570754 13.65340266 94.23149057 38.42896042a129.86073606 129.86073606 0 0 1 39.00424383 93.00421912 129.63062302 129.63062302 0 0 1-39.00424383 92.81245715L373.45896253 756.61087613a36.01276777 36.01276777 0 0 1-12.00425537 7.86221246L169.61672602 845.16623386h796.07776326c24.77555694 0 44.98719517 19.86646783 44.98719517 44.33520713 0 24.43038657-20.21163821 44.33520712-44.98719517 44.33520711zM786.28263852 221.55856268a56.37781522 56.37781522 0 0 0-17.10510562-40.46162996 58.10366711 58.10366711 0 0 0-75.36218197-5.52272444l80.92325912 79.73433874c7.36363284-9.74147278 11.54402847-21.40055859 11.54402848-33.74998434z m-64.16332306 86.75280121l-82.11217868-80.9232583-369.75409305 364.1930159 82.11217869 80.9232583 369.75409304-364.1930159zM288.50871702 714.5384516l-60.86502933-59.98292661-45.02554707 104.43319108 105.8905764-44.45026447z" p-id="5019"></path></svg>