<?xml version="1.0" standalone="no"?><!DOCTYPE svg PUBLIC "-//W3C//DTD SVG 1.1//EN" "http://www.w3.org/Graphics/SVG/1.1/DTD/svg11.dtd"><svg t="1584678826807" class="icon" viewBox="0 0 1024 1024" version="1.1" xmlns="http://www.w3.org/2000/svg" p-id="5888" xmlns:xlink="http://www.w3.org/1999/xlink" width="200" height="200"><defs><style type="text/css"></style></defs><path d="M873.8816 122.24H150.11328C103.97184 122.24 66.56 159.64672 66.56 205.79328v612.4032c0 46.15168 37.40672 83.5584 83.55328 83.5584h723.7632c46.15168 0 83.5584-37.41184 83.5584-83.5584V205.79328c0.00512-46.14144-37.40672-83.55328-83.55328-83.55328zM150.0928 177.92h723.8144a27.8528 27.8528 0 0 1 27.84768 27.84768v327.90016c-44.86656-36.80768-122.64448-86.44096-215.95648-86.44096-86.03136 0-170.84928 66.66752-252.87168 131.13344-62.84288 49.38752-127.83616 100.48-173.42976 100.48-63.95904 0-118.71232-47.0272-137.2672-64.96256V205.7728a27.87328 27.87328 0 0 1 27.86304-27.8528z m723.81952 668.16H150.0928a27.8528 27.8528 0 0 1-27.8528-27.84768v-132.16256c33.38752 23.64928 81.65888 48.47616 137.2672 48.47616 64.86528 0 134.3232-54.58432 207.85152-112.38912 74.57792-58.60864 151.69024-119.22432 218.44992-119.22432 119.66464 0 214.57408 105.33376 215.51104 106.40384l0.44544-0.39424v209.29024a27.86304 27.86304 0 0 1-27.8528 27.84768z" fill="#333333" p-id="5889"></path><path d="M297.53856 504.1152c61.9008 0 112.09216-50.18624 112.09216-112.09216s-50.19136-112.09216-112.09216-112.09216c-61.90592 0-112.09216 50.18624-112.09216 112.09216S235.63264 504.1152 297.53856 504.1152z m0.41472-168.21248c30.82752 0 55.808 24.9856 55.808 55.808s-24.99072 55.808-55.808 55.808-55.80288-24.9856-55.80288-55.808c0-30.8224 24.9856-55.808 55.80288-55.808z" fill="#333333" p-id="5890"></path></svg>