<?xml version="1.0" standalone="no"?><!DOCTYPE svg PUBLIC "-//W3C//DTD SVG 1.1//EN" "http://www.w3.org/Graphics/SVG/1.1/DTD/svg11.dtd"><svg t="1584678737571" class="icon" viewBox="0 0 1024 1024" version="1.1" xmlns="http://www.w3.org/2000/svg" p-id="3428" xmlns:xlink="http://www.w3.org/1999/xlink" width="200" height="200"><defs><style type="text/css"></style></defs><path d="M512.000512 0.049119c-282.736433 0-511.975441 229.239008-511.975441 511.974417s229.240031 511.975441 511.975441 511.975441 511.974417-229.240031 511.974417-511.975441S794.735921 0.049119 512.000512 0.049119zM512.000512 960.00243c-247.021 0-447.977871-200.989617-447.977871-447.977871s200.957895-447.977871 447.977871-447.977871c247.018953 0 447.977871 200.989617 447.977871 447.977871S759.018441 960.00243 512.000512 960.00243z" p-id="3429"></path><path d="M512.000512 192.038758c17.685801 0 31.998785-14.310937 31.998785-31.998785 0-17.685801-14.31196-31.998785-31.998785-31.998785-17.686824 0-31.998785 14.31196-31.998785 31.998785C480.001727 177.727821 494.312664 192.038758 512.000512 192.038758z" p-id="3430"></path><path d="M160.016949 384.030443c-17.686824 0-31.998785 14.310937-31.998785 31.998785 0 17.685801 14.310937 31.998785 31.998785 31.998785 17.685801 0 31.998785-14.31196 31.998785-31.998785C192.01471 398.342404 177.70275 384.030443 160.016949 384.030443z" p-id="3431"></path><path d="M863.983051 448.02699c17.624403 0 31.998785-14.31196 31.998785-31.998785 0-17.686824-14.374382-31.998785-31.998785-31.998785-17.750269 0-31.999808 14.310937-31.999808 31.998785C831.984267 433.715029 846.233805 448.02699 863.983051 448.02699z" p-id="3432"></path><path d="M731.239771 768.011768c-17.686824 0-31.998785 14.31196-31.998785 31.999808 0 17.685801 14.310937 31.998785 31.998785 31.998785 17.685801 0 31.998785-14.31196 31.998785-31.998785C763.237533 782.323729 748.925572 768.011768 731.239771 768.011768z" p-id="3433"></path><path d="M286.760584 768.011768c-17.624403 0-31.998785 14.31196-31.998785 31.999808 0 17.685801 14.374382 31.998785 31.998785 31.998785 17.749246 0 31.998785-14.31196 31.998785-31.998785C318.759369 782.323729 304.50983 768.011768 286.760584 768.011768z" p-id="3434"></path><path d="M269.198603 198.164269c-14.31196 10.375302-17.499559 30.374798-7.061836 44.685735 10.374278 14.310937 30.374798 17.437138 44.62229 7.061836 14.374382-10.375302 17.500583-30.373775 7.125281-44.685735C303.509037 190.915168 283.510564 187.726545 269.198603 198.164269z" p-id="3435"></path><path d="M141.205511 582.145593c-14.250562 10.375302-17.500583 30.373775-7.062859 44.685735 10.4367 14.310937 30.373775 17.436114 44.685735 7.061836 14.31196-10.375302 17.499559-30.373775 7.125281-44.685735C175.515944 574.896492 155.516448 571.708893 141.205511 582.145593z" p-id="3436"></path><path d="M717.239919 198.101847c-14.374382 10.374278-17.499559 30.373775-7.124258 44.684712 10.374278 14.31196 30.373775 17.500583 44.684712 7.125281 14.310937-10.4367 17.499559-30.436196 7.061836-44.748157C751.487931 190.851723 731.489458 187.726545 717.239919 198.101847z" p-id="3437"></path><path d="M845.202313 582.145593c-14.310937 10.4367-17.499559 30.436196-7.060813 44.685735 10.374278 14.310937 30.373775 17.499559 44.684712 7.124258 14.310937-10.4367 17.499559-30.373775 7.124258-44.684712C879.512746 574.958914 859.514273 571.771315 845.202313 582.145593z" p-id="3438"></path><path d="M512.000512 448.02699c-35.311227 0-63.996546 28.623921-63.996546 63.996546 0 8.686846 1.812275 16.874319 4.936429 24.436552l-91.495854 125.993552c-6.593162 9.0624-0.405229 24.936949 13.906731 35.311227 14.310937 10.375302 31.247678 11.374048 37.84084 2.312672l91.245144-125.555577c2.594081 0.312108 4.875031 1.499144 7.563256 1.499144 35.310204 0 63.996546-28.623921 63.996546-63.996546S547.309692 448.02699 512.000512 448.02699z" p-id="3439"></path></svg>