<?xml version="1.0" standalone="no"?><!DOCTYPE svg PUBLIC "-//W3C//DTD SVG 1.1//EN" "http://www.w3.org/Graphics/SVG/1.1/DTD/svg11.dtd"><svg t="1584549515931" class="icon" viewBox="0 0 1024 1024" version="1.1" xmlns="http://www.w3.org/2000/svg" p-id="8061" xmlns:xlink="http://www.w3.org/1999/xlink" width="200" height="200"><defs><style type="text/css"></style></defs><path d="M881 805.8L653.5 445.1V69.5H372.7v375.6L143.8 799c-41.5 68.1 7.5 155.5 87.3 155.5h566.1c76.3 0 123.3-83.4 83.8-148.7zM414.6 472.3l8-12.4V119.5h180.9v340l7.7 12.2 111.4 176.7h-422l114-176.1zM839 880.1c-4.1 7.3-16.5 24.4-41.8 24.4H231.1c-27.6 0-41.1-18.7-45.6-26.7s-13.3-28.9 0.7-52.3l82.1-127h485.9L838.4 832c12.8 21.5 4.7 40.8 0.6 48.1z" fill="" p-id="8062"></path></svg>