<?xml version="1.0" standalone="no"?><!DOCTYPE svg PUBLIC "-//W3C//DTD SVG 1.1//EN" "http://www.w3.org/Graphics/SVG/1.1/DTD/svg11.dtd"><svg t="1584549642815" class="icon" viewBox="0 0 1024 1024" version="1.1" xmlns="http://www.w3.org/2000/svg" p-id="9615" xmlns:xlink="http://www.w3.org/1999/xlink" width="200" height="200"><defs><style type="text/css"></style></defs><path d="M716.8 942.933333h-17.066667c-170.666667-17.066667-320-102.4-430.933333-234.666666-106.666667-132.266667-157.866667-298.666667-136.533333-469.333334 8.533333-98.133333 98.133333-170.666667 196.266666-157.866666 8.533333 4.266667 17.066667 4.266667 25.6 4.266666 85.333333 21.333333 140.8 102.4 132.266667 192-8.533333 76.8-59.733333 136.533333-128 153.6 34.133333 106.666667 106.666667 196.266667 204.8 251.733334 34.133333-64 102.4-102.4 174.933333-93.866667 89.6 8.533333 153.6 81.066667 157.866667 166.4v29.866667c-4.266667 46.933333-29.866667 89.6-64 119.466666-34.133333 25.6-72.533333 38.4-115.2 38.4zM307.2 145.066667c-59.733333 0-106.666667 42.666667-115.2 102.4-17.066667 153.6 29.866667 302.933333 123.733333 422.4s234.666667 192 388.266667 209.066666c29.866667 4.266667 59.733333-4.266667 85.333333-25.6 25.6-21.333333 38.4-46.933333 42.666667-76.8v-17.066666c-4.266667-55.466667-46.933333-102.4-102.4-106.666667-55.466667-4.266667-106.666667 29.866667-123.733333 85.333333-4.266667 8.533333-8.533333 17.066667-17.066667 21.333334-8.533333 4.266667-17.066667 4.266667-25.6 0-140.8-64-243.2-192-277.333333-341.333334 0-8.533333 0-17.066667 4.266666-25.6s12.8-12.8 21.333334-12.8c55.466667-4.266667 102.4-46.933333 106.666666-102.4 4.266667-55.466667-29.866667-106.666667-85.333333-123.733333-4.266667 0-12.8-4.266667-17.066667-4.266667 0-4.266667-4.266667-4.266667-8.533333-4.266666z m554.666667 635.733333z" p-id="9616"></path></svg>