<?xml version="1.0" standalone="no"?><!DOCTYPE svg PUBLIC "-//W3C//DTD SVG 1.1//EN" "http://www.w3.org/Graphics/SVG/1.1/DTD/svg11.dtd"><svg t="1584546895499" class="icon" viewBox="0 0 1024 1024" version="1.1" xmlns="http://www.w3.org/2000/svg" p-id="2104" xmlns:xlink="http://www.w3.org/1999/xlink" width="200" height="200"><defs><style type="text/css"></style></defs><path d="M512 120c14.5 0 29.3 1.6 43.9 4.6 78.4 16.4 141.7 84 153.7 164.2 12.3 82-24.4 159.5-95.8 202.2-18.1 10.8-28.6 30.9-27.2 52 1.5 21.1 14.6 39.5 34.1 47.7 115.8 48.9 198.6 169 215.5 313.3H187.3c17.4-144.3 100.1-264.4 215.9-313.3 19.4-8.2 32.6-26.7 34.1-47.7 1.5-21.1-9-41.1-27.2-52-61.4-36.7-98.1-100.6-98.1-171 0-110.3 89.7-200 200-200m0-56c-141.4 0-256 114.6-256 256 0 93.5 50.6 174.4 125.5 219.1C250 594.7 151.7 731.2 131.7 897.3c-4 33.3 22.5 62.7 56 62.7h648.5c33.5 0 60-29.4 56-62.7-20-166.1-118.2-302.7-249.7-358.2 85.2-50.9 139-148.7 122.5-258.6-15.5-103.1-95.5-189.3-197.6-210.7-18.8-3.9-37.3-5.8-55.4-5.8z" p-id="2105"></path></svg>