<?xml version="1.0" standalone="no"?><!DOCTYPE svg PUBLIC "-//W3C//DTD SVG 1.1//EN" "http://www.w3.org/Graphics/SVG/1.1/DTD/svg11.dtd"><svg t="1584549471995" class="icon" viewBox="0 0 1024 1024" version="1.1" xmlns="http://www.w3.org/2000/svg" p-id="6527" xmlns:xlink="http://www.w3.org/1999/xlink" width="200" height="200"><defs><style type="text/css"></style></defs><path d="M192.256 75.861333V75.52H96.170667c-52.693333 0-95.146667 47.658667-95.146667 106.496V890.026667c0 58.965333 42.581333 106.581333 95.146667 106.581333h826.069333c52.821333 0 95.189333-47.744 95.189333-106.666667V182.058667c0-58.965333-42.666667-106.496-95.274666-106.496h-94.592v0.384h-0.725334-0.085333c-17.493333 0-31.701333 17.152-31.701333 38.272v0.256c0 21.162667 14.208 38.314667 31.701333 38.314666 1.706667 0 3.413333-0.170667 5.12-0.512h90.282667c18.645333 0 31.744 14.677333 31.744 29.781334V890.026667c0 15.189333-12.970667 29.824-31.658667 29.824H96.170667c-18.56 0-31.658667-14.677333-31.658667-29.824V181.973333c0-15.146667 13.098667-29.738667 31.701333-29.738666h90.538667c1.450667 0.256 3.114667 0.426667 4.821333 0.426666 17.493333 0 31.701333-17.152 31.701334-38.314666v-0.085334c0.085333-21.12-13.824-37.973333-31.061334-38.4h0.042667z m158.122667 38.4c0.042667-21.12 14.165333-38.272 31.616-38.4h254.421333c17.493333 0 31.573333 17.024 31.573333 38.4-0.042667 21.077333-14.165333 38.144-31.573333 38.357334H381.994667c-17.450667 0-31.573333-17.109333-31.573334-38.186667v-0.170667h-0.042666zM255.104 40.874667V39.424c0-21.205333 14.208-38.4 31.744-38.4 17.578667 0 31.786667 17.194667 31.786667 38.4v155.733333c-0.682667 20.565333-14.634667 36.949333-31.786667 36.949334-17.109333 0-31.061333-16.384-31.744-36.906667V40.874667z m-63.573333 384.170666c0-21.205333 14.592-38.4 32.085333-38.4h63.146667c17.578667 0 31.829333 17.237333 31.872 38.442667 0 21.205333-14.549333 38.4-32.085334 38.4H223.488c-17.578667 0-31.829333-17.237333-31.872-38.442667H191.573333z m0 230.357334c0-21.248 14.592-38.4 32.085333-38.4h63.146667c17.578667 0 31.829333 17.152 31.872 38.4 0 21.205333-14.549333 38.357333-32.085334 38.357333H223.488c-17.578667 0-31.829333-17.194667-31.872-38.4H191.573333z m254.165333-230.314667c0-21.205333 14.506667-38.4 32.042667-38.4h63.104c17.578667 0 31.829333 17.194667 31.914666 38.4 0 21.205333-14.592 38.4-32.085333 38.4h-63.061333c-17.578667 0-31.829333-17.237333-31.872-38.4h-0.042667z m0 230.229333c0-21.205333 14.506667-38.357333 32.042667-38.357333h63.104c17.578667 0 31.829333 17.194667 31.914666 38.4 0 21.248-14.592 38.4-32.085333 38.4h-63.061333c-17.578667 0-31.829333-17.194667-31.872-38.4h-0.042667zM699.733333 425.045333c0-21.205333 14.592-38.4 32.085334-38.4h63.104c17.578667 0 31.829333 17.237333 31.872 38.442667 0 21.205333-14.506667 38.4-32.042667 38.4H731.733333c-17.578667 0-31.829333-17.237333-31.914666-38.442667z m0 230.357334c0-21.248 14.592-38.4 32.085334-38.4h63.104c17.578667 0 31.829333 17.152 31.872 38.4 0 21.205333-14.506667 38.357333-32.042667 38.357333H731.733333c-17.578667 0-31.829333-17.194667-31.914666-38.4z m0-614.528V39.424c0-21.205333 14.208-38.4 31.786667-38.4 17.536 0 31.786667 17.194667 31.786667 38.4v155.733333c-0.682667 20.565333-14.677333 36.949333-31.786667 36.949334-17.152 0-31.104-16.384-31.786667-36.906667V40.874667z" p-id="6528"></path></svg>